<svg width="28" height="28" viewBox="0 0 28 28" fill="none" xmlns="http://www.w3.org/2000/svg">
<path d="M24.0886 3.11938L15.3442 9.61405L16.9612 5.78229L24.0886 3.11938Z" fill="#E2761B" stroke="#E2761B" stroke-width="0.0517891" stroke-linecap="round" stroke-linejoin="round"/>
<path d="M3.9021 3.11938L12.5763 9.67556L11.0383 5.78229L3.9021 3.11938Z" fill="#E4761B" stroke="#E4761B" stroke-width="0.0517891" stroke-linecap="round" stroke-linejoin="round"/>
<path d="M20.9426 18.1743L18.6136 21.7424L23.5968 23.1134L25.0292 18.2534L20.9426 18.1743Z" fill="#E4761B" stroke="#E4761B" stroke-width="0.0517891" stroke-linecap="round" stroke-linejoin="round"/>
<path d="M2.97925 18.2534L4.40297 23.1134L9.38603 21.7424L7.05709 18.1743L2.97925 18.2534Z" fill="#E4761B" stroke="#E4761B" stroke-width="0.0517891" stroke-linecap="round" stroke-linejoin="round"/>
<path d="M9.10512 12.1455L7.71655 14.246L12.6644 14.4657L12.4887 9.14868L9.10512 12.1455Z" fill="#E4761B" stroke="#E4761B" stroke-width="0.0517891" stroke-linecap="round" stroke-linejoin="round"/>
<path d="M18.8865 12.1477L15.4591 9.08929L15.3448 14.4678L20.284 14.2482L18.8865 12.1477Z" fill="#E4761B" stroke="#E4761B" stroke-width="0.0517891" stroke-linecap="round" stroke-linejoin="round"/>
<path d="M9.38574 21.7399L12.3562 20.2899L9.79001 18.2861L9.38574 21.7399Z" fill="#E4761B" stroke="#E4761B" stroke-width="0.0517891" stroke-linecap="round" stroke-linejoin="round"/>
<path d="M15.6351 20.2899L18.6143 21.7399L18.2013 18.2861L15.6351 20.2899Z" fill="#E4761B" stroke="#E4761B" stroke-width="0.0517891" stroke-linecap="round" stroke-linejoin="round"/>
<path d="M18.6137 21.7413L15.6345 20.2912L15.8717 22.2335L15.8454 23.0507L18.6137 21.7413Z" fill="#D7C1B3" stroke="#D7C1B3" stroke-width="0.0517891" stroke-linecap="round" stroke-linejoin="round"/>
<path d="M9.38574 21.741L12.1541 23.0505L12.1365 22.2331L12.3562 20.291L9.38574 21.741Z" fill="#D7C1B3" stroke="#D7C1B3" stroke-width="0.0517891" stroke-linecap="round" stroke-linejoin="round"/>
<path d="M12.1984 17.0058L9.72009 16.2763L11.469 15.4766L12.1984 17.0058Z" fill="#233447" stroke="#233447" stroke-width="0.0517891" stroke-linecap="round" stroke-linejoin="round"/>
<path d="M15.7922 17.0058L16.5216 15.4766L18.2794 16.2763L15.7922 17.0058Z" fill="#233447" stroke="#233447" stroke-width="0.0517891" stroke-linecap="round" stroke-linejoin="round"/>
<path d="M9.38546 21.7427L9.8073 18.1746L7.05652 18.2537L9.38546 21.7427Z" fill="#CD6116" stroke="#CD6116" stroke-width="0.0517891" stroke-linecap="round" stroke-linejoin="round"/>
<path d="M18.1917 18.1746L18.6135 21.7427L20.9425 18.2537L18.1917 18.1746Z" fill="#CD6116" stroke="#CD6116" stroke-width="0.0517891" stroke-linecap="round" stroke-linejoin="round"/>
<path d="M20.2833 14.2462L15.3442 14.4658L15.8011 17.0057L16.5307 15.4765L18.2883 16.2763L20.2833 14.2462Z" fill="#CD6116" stroke="#CD6116" stroke-width="0.0517891" stroke-linecap="round" stroke-linejoin="round"/>
<path d="M9.71965 16.2763L11.4773 15.4765L12.198 17.0057L12.6638 14.4658L7.71588 14.2462L9.71965 16.2763Z" fill="#CD6116" stroke="#CD6116" stroke-width="0.0517891" stroke-linecap="round" stroke-linejoin="round"/>
<path d="M7.71655 14.2462L9.79063 18.2888L9.72032 16.2763L7.71655 14.2462Z" fill="#E4751F" stroke="#E4751F" stroke-width="0.0517891" stroke-linecap="round" stroke-linejoin="round"/>
<path d="M18.2889 16.2763L18.201 18.2888L20.2839 14.2462L18.2889 16.2763Z" fill="#E4751F" stroke="#E4751F" stroke-width="0.0517891" stroke-linecap="round" stroke-linejoin="round"/>
<path d="M12.6648 14.4648L12.199 17.0046L12.7791 20.0015L12.9109 16.0556L12.6648 14.4648Z" fill="#E4751F" stroke="#E4751F" stroke-width="0.0517891" stroke-linecap="round" stroke-linejoin="round"/>
<path d="M15.3453 14.4648L15.108 16.0468L15.2135 20.0015L15.8023 17.0046L15.3453 14.4648Z" fill="#E4751F" stroke="#E4751F" stroke-width="0.0517891" stroke-linecap="round" stroke-linejoin="round"/>
<path d="M15.8019 17.0036L15.213 20.0005L15.6349 20.2904L18.2011 18.2868L18.2889 16.2742L15.8019 17.0036Z" fill="#F6851B" stroke="#F6851B" stroke-width="0.0517891" stroke-linecap="round" stroke-linejoin="round"/>
<path d="M9.72009 16.2742L9.7904 18.2868L12.3566 20.2904L12.7784 20.0005L12.1984 17.0036L9.72009 16.2742Z" fill="#F6851B" stroke="#F6851B" stroke-width="0.0517891" stroke-linecap="round" stroke-linejoin="round"/>
<path d="M15.8452 23.0524L15.8717 22.2351L15.6519 22.0418H12.3387L12.1365 22.2351L12.1541 23.0524L9.38574 21.7429L10.3525 22.5339L12.3123 23.8961H15.6782L17.6469 22.5339L18.6136 21.7429L15.8452 23.0524Z" fill="#C0AD9E" stroke="#C0AD9E" stroke-width="0.0517891" stroke-linecap="round" stroke-linejoin="round"/>
<path d="M15.6347 20.292L15.2129 20.002H12.7784L12.3566 20.292L12.1369 22.2342L12.339 22.0409H15.6523L15.8719 22.2342L15.6347 20.292Z" fill="#161616" stroke="#161616" stroke-width="0.0517891" stroke-linecap="round" stroke-linejoin="round"/>
<path d="M24.4592 10.0359L25.2062 6.4502L24.0902 3.11938L15.6357 9.39434L18.8874 12.1451L23.4837 13.4898L24.5032 12.3033L24.0638 11.9869L24.7669 11.3454L24.2219 10.9235L24.9251 10.3874L24.4592 10.0359Z" fill="#763D16" stroke="#763D16" stroke-width="0.0517891" stroke-linecap="round" stroke-linejoin="round"/>
<path d="M2.79529 6.44985L3.5423 10.0355L3.06773 10.3871L3.77081 10.9232L3.23471 11.345L3.93779 11.9866L3.49837 12.303L4.50903 13.4894L9.10539 12.1448L12.3571 9.39397L3.90264 3.11902L2.79529 6.44985Z" fill="#763D16" stroke="#763D16" stroke-width="0.0517891" stroke-linecap="round" stroke-linejoin="round"/>
<path d="M23.4829 13.4899L18.8865 12.1453L20.2839 14.2457L18.201 18.2884L20.943 18.2532H25.0296L23.4829 13.4899Z" fill="#F6851B" stroke="#F6851B" stroke-width="0.0517891" stroke-linecap="round" stroke-linejoin="round"/>
<path d="M9.1048 12.1453L4.50844 13.4899L2.97925 18.2532H7.05709L9.7903 18.2884L7.71622 14.2457L9.1048 12.1453Z" fill="#F6851B" stroke="#F6851B" stroke-width="0.0517891" stroke-linecap="round" stroke-linejoin="round"/>
<path d="M15.3452 14.4662L15.6352 9.39525L16.9711 5.7832H11.0388L12.3571 9.39525L12.6647 14.4662L12.7702 16.0656L12.779 20.0029H15.2133L15.2309 16.0656L15.3452 14.4662Z" fill="#F6851B" stroke="#F6851B" stroke-width="0.0517891" stroke-linecap="round" stroke-linejoin="round"/>
</svg>
