<svg width="36" height="32" viewBox="0 0 36 32" fill="none" xmlns="http://www.w3.org/2000/svg">
<path d="M0.00139983 22.7949C0.692678 16.0065 5.7228 14.1971 8.15145 14.1409L12.8094 14.1474L16.034 14.1283V10.133H19.9V14.1054L27.7358 14.0589C28.9853 13.9633 31.652 12.986 32.3235 9.84189C32.9951 6.69775 30.3588 4.57145 28.9567 3.90132C25.1607 2.597 22.8119 5.91152 22.112 7.73182L18.6315 7.59618C18.7734 4.23066 21.4676 2.02038 22.7969 1.33594C24.1941 0.395656 27.9012 -0.978699 31.5522 1.04612C35.2033 3.07093 36.0378 7.32428 35.9987 9.19785C35.3131 15.9868 30.2844 17.8006 27.8558 17.8588L19.9 17.8811V21.8712H16.034V17.892L12.8404 17.9009L8.26833 17.9409C7.01881 18.0354 4.35124 19.0104 3.6771 22.154C3.00296 25.2976 5.63747 27.4261 7.039 28.0974C10.834 29.405 13.1855 26.0925 13.8869 24.2728L17.3673 24.4114C17.2225 27.7768 14.5265 29.9848 13.1966 30.6681C11.7987 31.6072 8.09047 32.9784 4.44109 30.9504C0.791714 28.9225 -0.0392768 24.6685 0.00139983 22.7949Z" fill="#3D72FE"/>
</svg>
